<svg width="64" height="64" viewBox="0 0 64 64" fill="none" xmlns="http://www.w3.org/2000/svg">
<path d="M32 5.33331C21.68 5.33331 13.3333 13.68 13.3333 24C13.3333 38 32 58.6666 32 58.6666C32 58.6666 50.6666 38 50.6666 24C50.6666 13.68 42.32 5.33331 32 5.33331ZM18.6666 24C18.6666 16.64 24.64 10.6666 32 10.6666C39.36 10.6666 45.3333 16.64 45.3333 24C45.3333 31.68 37.6533 43.1733 32 50.3466C26.4533 43.2266 18.6666 31.6 18.6666 24Z" fill="#6D2BF0"/>
<path d="M32 30.6666C35.6819 30.6666 38.6666 27.6819 38.6666 24C38.6666 20.3181 35.6819 17.3333 32 17.3333C28.3181 17.3333 25.3333 20.3181 25.3333 24C25.3333 27.6819 28.3181 30.6666 32 30.6666Z" fill="#6D2BF0"/>
</svg>
