<svg width="64" height="64" viewBox="0 0 64 64" fill="none" xmlns="http://www.w3.org/2000/svg">
<path d="M32 5.33331C24.9555 5.42315 18.2248 8.26151 13.2432 13.2431C8.26154 18.2248 5.42318 24.9555 5.33334 32C5.36627 36.1038 6.34593 40.1446 8.19604 43.8078C10.0462 47.471 12.7168 50.6578 16 53.12V53.3333H16.2667C20.7818 56.7933 26.3116 58.6684 32 58.6684C37.6884 58.6684 43.2182 56.7933 47.7333 53.3333H48V53.12C51.2832 50.6578 53.9539 47.471 55.804 43.8078C57.6541 40.1446 58.6337 36.1038 58.6667 32C58.5768 24.9555 55.7385 18.2248 50.7568 13.2431C45.7752 8.26151 39.0445 5.42315 32 5.33331ZM21.52 50.48C21.9093 48.6972 22.8964 47.101 24.3176 45.9563C25.7387 44.8116 27.5085 44.1872 29.3333 44.1866H34.6667C36.4915 44.1872 38.2613 44.8116 39.6824 45.9563C41.1036 47.101 42.0907 48.6972 42.48 50.48C39.3037 52.3488 35.6853 53.3343 32 53.3343C28.3147 53.3343 24.6964 52.3488 21.52 50.48ZM46.96 47.04C45.9457 44.6158 44.2377 42.5455 42.0505 41.0889C39.8633 39.6324 37.2945 38.8546 34.6667 38.8533H29.3333C26.7055 38.8546 24.1367 39.6324 21.9495 41.0889C19.7624 42.5455 18.0543 44.6158 17.04 47.04C15.0418 45.0746 13.4504 42.7348 12.3568 40.1541C11.2633 37.5735 10.6889 34.8027 10.6667 32C10.7358 26.3635 13.0057 20.9774 16.9915 16.9915C20.9774 13.0056 26.3635 10.7358 32 10.6666C37.6365 10.7358 43.0226 13.0056 47.0085 16.9915C50.9944 20.9774 53.2642 26.3635 53.3333 32C53.3111 34.8027 52.7367 37.5735 51.6432 40.1541C50.5496 42.7348 48.9582 45.0746 46.96 47.04Z" fill="#6D2BF0"/>
<path d="M32 16C30.5903 15.9672 29.1885 16.2206 27.8795 16.7451C26.5705 17.2695 25.3815 18.054 24.3844 19.0511C23.3873 20.0482 22.6028 21.2372 22.0784 22.5462C21.5539 23.8552 21.3005 25.2569 21.3333 26.6667C21.3005 28.0764 21.5539 29.4782 22.0784 30.7872C22.6028 32.0962 23.3873 33.2852 24.3844 34.2823C25.3815 35.2794 26.5705 36.0639 27.8795 36.5883C29.1885 37.1127 30.5903 37.3662 32 37.3334C33.4097 37.3662 34.8115 37.1127 36.1205 36.5883C37.4295 36.0639 38.6185 35.2794 39.6156 34.2823C40.6127 33.2852 41.3972 32.0962 41.9216 30.7872C42.4461 29.4782 42.6995 28.0764 42.6667 26.6667C42.6995 25.2569 42.4461 23.8552 41.9216 22.5462C41.3972 21.2372 40.6127 20.0482 39.6156 19.0511C38.6185 18.054 37.4295 17.2695 36.1205 16.7451C34.8115 16.2206 33.4097 15.9672 32 16ZM32 32C31.2905 32.0343 30.5817 31.9198 29.9191 31.664C29.2565 31.4081 28.6548 31.0164 28.1525 30.5142C27.6503 30.0119 27.2586 29.4102 27.0027 28.7476C26.7468 28.085 26.6324 27.3762 26.6667 26.6667C26.6324 25.9572 26.7468 25.2484 27.0027 24.5858C27.2586 23.9232 27.6503 23.3215 28.1525 22.8192C28.6548 22.317 29.2565 21.9253 29.9191 21.6694C30.5817 21.4135 31.2905 21.2991 32 21.3334C32.7095 21.2991 33.4183 21.4135 34.0809 21.6694C34.7435 21.9253 35.3452 22.317 35.8475 22.8192C36.3497 23.3215 36.7414 23.9232 36.9973 24.5858C37.2532 25.2484 37.3676 25.9572 37.3333 26.6667C37.3676 27.3762 37.2532 28.085 36.9973 28.7476C36.7414 29.4102 36.3497 30.0119 35.8475 30.5142C35.3452 31.0164 34.7435 31.4081 34.0809 31.664C33.4183 31.9198 32.7095 32.0343 32 32Z" fill="#6D2BF0"/>
</svg>
