<svg width="64" height="64" viewBox="0 0 64 64" fill="none" xmlns="http://www.w3.org/2000/svg">
<path d="M33.5982 12.5315C32.715 12.5315 31.9982 11.8297 31.9982 10.965C31.9982 4.90923 37.0157 0 43.1979 0C44.0845 0 44.7979 0.701764 44.7979 1.56643C44.7979 7.62227 39.7837 12.5315 33.5982 12.5315Z" fill="white"/>
<path d="M33.5982 12.5315C32.715 12.5315 31.9982 11.8297 31.9982 10.965C31.9982 4.90923 37.0157 0 43.1979 0C44.0845 0 44.7979 0.701764 44.7979 1.56643C44.7979 7.62227 39.7837 12.5315 33.5982 12.5315Z" fill="white"/>
<path d="M56.9592 45.516C57.577 45.9704 57.7784 46.7943 57.4298 47.471C51.7978 58.505 47.305 64 43.1996 64C41.2891 64 39.4108 63.3954 37.5804 62.2174C34.9148 60.4975 31.4749 60.4254 28.7357 62.0292C26.5181 63.3297 24.4062 64 22.3998 64C16.3615 64 6.40002 45.795 6.40002 35.8042C6.40002 25.1399 12.1119 17.007 20.7998 17.007C24.8862 17.007 28.4157 17.596 31.3789 18.7927C32.6364 19.3002 34.0572 19.2627 35.2828 18.6862C37.6892 17.5552 40.8604 17.007 44.7996 17.007C49.606 17.007 53.7946 19.3504 57.2792 23.8993C57.8074 24.5916 57.6666 25.5722 56.9592 26.0923C53.0714 28.9463 51.1996 32.1544 51.1996 35.8042C51.1996 39.454 53.0714 42.662 56.9592 45.516Z" fill="white"/>
<path d="M56.9592 45.516C57.577 45.9704 57.7784 46.7943 57.4298 47.471C51.7978 58.505 47.305 64 43.1996 64C41.2891 64 39.4108 63.3954 37.5804 62.2174C34.9148 60.4975 31.4749 60.4254 28.7357 62.0292C26.5181 63.3297 24.4062 64 22.3998 64C16.3615 64 6.40002 45.795 6.40002 35.8042C6.40002 25.1399 12.1119 17.007 20.7998 17.007C24.8862 17.007 28.4157 17.596 31.3789 18.7927C32.6364 19.3002 34.0572 19.2627 35.2828 18.6862C37.6892 17.5552 40.8604 17.007 44.7996 17.007C49.606 17.007 53.7946 19.3504 57.2792 23.8993C57.8074 24.5916 57.6666 25.5722 56.9592 26.0923C53.0714 28.9463 51.1996 32.1544 51.1996 35.8042C51.1996 39.454 53.0714 42.662 56.9592 45.516Z" fill="white"/>
</svg>
