<svg width="64" height="64" viewBox="0 0 64 64" fill="none" xmlns="http://www.w3.org/2000/svg">
<path d="M50.728 45.272C49.479 44.0756 48.2635 42.845 47.0826 41.5813C46.0906 40.5733 45.4933 39.84 45.4933 39.84L38.0266 36.2746C41.016 32.8843 42.6658 28.52 42.6666 24C42.6666 13.7093 34.2933 5.33331 24 5.33331C13.7066 5.33331 5.33331 13.7093 5.33331 24C5.33331 34.2906 13.7066 42.6666 24 42.6666C28.7013 42.6666 32.9866 40.9066 36.2746 38.0293L39.84 45.496C39.84 45.496 40.5733 46.0933 41.5813 47.0853C42.6133 48.0533 43.9706 49.3626 45.272 50.7306L48.8933 54.4426L50.504 56.1653L56.16 50.5093L54.4373 48.8986C53.4266 47.9066 52.0773 46.5893 50.728 45.272ZM24 37.3333C16.648 37.3333 10.6666 31.352 10.6666 24C10.6666 16.648 16.648 10.6666 24 10.6666C31.352 10.6666 37.3333 16.648 37.3333 24C37.3333 31.352 31.352 37.3333 24 37.3333Z" fill="#6D2BF0"/>
</svg>
