<svg width="54" height="54" viewBox="0 0 54 54" fill="none" xmlns="http://www.w3.org/2000/svg">
<path d="M50.4 0H2.93333C2.15536 0 1.40926 0.309047 0.859154 0.859154C0.309047 1.40926 0 2.15536 0 2.93333V50.4C0 50.7852 0.0758731 51.1666 0.223287 51.5225C0.370701 51.8784 0.586769 52.2018 0.859154 52.4742C1.13154 52.7466 1.45491 52.9626 1.8108 53.11C2.16668 53.2575 2.54812 53.3333 2.93333 53.3333H28.48V32.6667H21.5467V24.6667H28.48V18.6667C28.3364 17.258 28.5027 15.835 28.9672 14.4974C29.4318 13.1599 30.1834 11.9401 31.1692 10.9238C32.1551 9.90741 33.3514 9.11904 34.6742 8.61397C35.997 8.10889 37.4143 7.89934 38.8267 8C40.9022 7.98723 42.9768 8.09407 45.04 8.32V15.52H40.8C37.44 15.52 36.8 17.12 36.8 19.44V24.5867H44.8L43.76 32.5867H36.8V53.3333H50.4C50.7852 53.3333 51.1666 53.2575 51.5225 53.11C51.8784 52.9626 52.2018 52.7466 52.4742 52.4742C52.7466 52.2018 52.9626 51.8784 53.11 51.5225C53.2575 51.1666 53.3333 50.7852 53.3333 50.4V2.93333C53.3333 2.54812 53.2575 2.16668 53.11 1.8108C52.9626 1.45491 52.7466 1.13154 52.4742 0.859154C52.2018 0.586769 51.8784 0.370701 51.5225 0.223287C51.1666 0.0758731 50.7852 0 50.4 0Z" fill="white"/>
</svg>
