<svg width="64" height="64" viewBox="0 0 64 64" fill="none" xmlns="http://www.w3.org/2000/svg">
<path d="M37.3334 38.0054V43.5771C35.6651 42.9875 33.8702 42.6667 32 42.6667C23.1635 42.6667 16 49.8302 16 58.6667H10.6667C10.6667 46.8846 20.2179 37.3334 32 37.3334C33.8416 37.3334 35.6288 37.5667 37.3334 38.0054ZM32 34.6667C23.16 34.6667 16 27.5067 16 18.6667C16 9.82669 23.16 2.66669 32 2.66669C40.84 2.66669 48 9.82669 48 18.6667C48 27.5067 40.84 34.6667 32 34.6667ZM32 29.3334C37.8934 29.3334 42.6667 24.56 42.6667 18.6667C42.6667 12.7734 37.8934 8.00002 32 8.00002C26.1067 8.00002 21.3334 12.7734 21.3334 18.6667C21.3334 24.56 26.1067 29.3334 32 29.3334ZM48 45.3334V37.3334H53.3334V45.3334H61.3334V50.6667H53.3334V58.6667H48V50.6667H40V45.3334H48Z" fill="#6D2BF0"/>
</svg>
