<svg width="64" height="64" viewBox="0 0 64 64" fill="none" xmlns="http://www.w3.org/2000/svg">
<path d="M42.6667 13.3333C44.1387 13.3333 45.3333 14.5307 45.3333 16C45.3333 17.4693 44.1387 18.6667 42.6667 18.6667C41.1947 18.6667 40 17.4693 40 16C40 14.5307 41.1947 13.3333 42.6667 13.3333ZM10.6667 18.6667C9.192 18.6667 8 17.472 8 16C8 14.528 9.192 13.3333 10.6667 13.3333H35.16C36.264 10.2347 39.1947 8 42.6667 8C46.1387 8 49.0693 10.2347 50.1733 13.3333H53.3333C54.808 13.3333 56 14.528 56 16C56 17.472 54.808 18.6667 53.3333 18.6667H50.1733C49.0693 21.7653 46.1387 24 42.6667 24C39.1947 24 36.264 21.7653 35.16 18.6667H10.6667ZM53.3333 29.3333C54.808 29.3333 56 30.528 56 32C56 33.472 54.808 34.6667 53.3333 34.6667H28.84C27.736 37.7653 24.8053 40 21.3333 40C17.8613 40 14.9307 37.7653 13.8267 34.6667H10.6667C9.192 34.6667 8 33.472 8 32C8 30.528 9.192 29.3333 10.6667 29.3333H13.8267C14.9307 26.2347 17.8613 24 21.3333 24C24.8053 24 27.736 26.2347 28.84 29.3333H53.3333ZM21.3333 34.6667C22.8053 34.6667 24 33.4693 24 32C24 30.5307 22.8053 29.3333 21.3333 29.3333C19.8613 29.3333 18.6667 30.5307 18.6667 32C18.6667 33.4693 19.8613 34.6667 21.3333 34.6667ZM53.3333 45.3333C54.808 45.3333 56 46.528 56 48C56 49.472 54.808 50.6667 53.3333 50.6667H50.1733C49.0693 53.7653 46.1387 56 42.6667 56C39.1947 56 36.264 53.7653 35.16 50.6667H10.6667C9.192 50.6667 8 49.472 8 48C8 46.528 9.192 45.3333 10.6667 45.3333H35.16C36.264 42.2347 39.1947 40 42.6667 40C46.1387 40 49.0693 42.2347 50.1733 45.3333H53.3333ZM42.6667 50.6667C44.1387 50.6667 45.3333 49.4693 45.3333 48C45.3333 46.5307 44.1387 45.3333 42.6667 45.3333C41.1947 45.3333 40 46.5307 40 48C40 49.4693 41.1947 50.6667 42.6667 50.6667Z" fill="#6D2BF0"/>
<mask id="mask0_495_53" style="mask-type:luminance" maskUnits="userSpaceOnUse" x="8" y="8" width="48" height="48">
<path d="M42.6667 13.3333C44.1387 13.3333 45.3333 14.5307 45.3333 16C45.3333 17.4693 44.1387 18.6667 42.6667 18.6667C41.1947 18.6667 40 17.4693 40 16C40 14.5307 41.1947 13.3333 42.6667 13.3333ZM10.6667 18.6667C9.192 18.6667 8 17.472 8 16C8 14.528 9.192 13.3333 10.6667 13.3333H35.16C36.264 10.2347 39.1947 8 42.6667 8C46.1387 8 49.0693 10.2347 50.1733 13.3333H53.3333C54.808 13.3333 56 14.528 56 16C56 17.472 54.808 18.6667 53.3333 18.6667H50.1733C49.0693 21.7653 46.1387 24 42.6667 24C39.1947 24 36.264 21.7653 35.16 18.6667H10.6667ZM53.3333 29.3333C54.808 29.3333 56 30.528 56 32C56 33.472 54.808 34.6667 53.3333 34.6667H28.84C27.736 37.7653 24.8053 40 21.3333 40C17.8613 40 14.9307 37.7653 13.8267 34.6667H10.6667C9.192 34.6667 8 33.472 8 32C8 30.528 9.192 29.3333 10.6667 29.3333H13.8267C14.9307 26.2347 17.8613 24 21.3333 24C24.8053 24 27.736 26.2347 28.84 29.3333H53.3333ZM21.3333 34.6667C22.8053 34.6667 24 33.4693 24 32C24 30.5307 22.8053 29.3333 21.3333 29.3333C19.8613 29.3333 18.6667 30.5307 18.6667 32C18.6667 33.4693 19.8613 34.6667 21.3333 34.6667ZM53.3333 45.3333C54.808 45.3333 56 46.528 56 48C56 49.472 54.808 50.6667 53.3333 50.6667H50.1733C49.0693 53.7653 46.1387 56 42.6667 56C39.1947 56 36.264 53.7653 35.16 50.6667H10.6667C9.192 50.6667 8 49.472 8 48C8 46.528 9.192 45.3333 10.6667 45.3333H35.16C36.264 42.2347 39.1947 40 42.6667 40C46.1387 40 49.0693 42.2347 50.1733 45.3333H53.3333ZM42.6667 50.6667C44.1387 50.6667 45.3333 49.4693 45.3333 48C45.3333 46.5307 44.1387 45.3333 42.6667 45.3333C41.1947 45.3333 40 46.5307 40 48C40 49.4693 41.1947 50.6667 42.6667 50.6667Z" fill="#2E2D37"/>
</mask>
<g mask="url(#mask0_495_53)">
<path d="M64 0H0V64H64V0Z" fill="#6D2BF0"/>
</g>
</svg>
