<svg width="64" height="64" viewBox="0 0 64 64" fill="none" xmlns="http://www.w3.org/2000/svg">
<path d="M59.6 32.644C59.6 30.74 59.444 28.828 59.116 26.956H32.556V37.736H47.764C47.4503 39.4611 46.7897 41.1046 45.8223 42.567C44.8549 44.0294 43.6009 45.2803 42.136 46.244V53.244H51.212C56.54 48.364 59.6 41.164 59.6 32.644Z" fill="#4285F4"/>
<path d="M32.56 60C40.152 60 46.556 57.52 51.22 53.24L42.148 46.244C39.624 47.952 36.364 48.92 32.568 48.92C25.224 48.92 18.996 43.992 16.76 37.368H7.40002V44.58C9.75842 49.2249 13.3584 53.1251 17.7999 55.8472C22.2414 58.5693 27.3507 60.0068 32.56 60Z" fill="#34A853"/>
<path d="M16.748 37.368C15.5684 33.892 15.5684 30.124 16.748 26.648V19.436H7.396C5.42657 23.3342 4.40051 27.6405 4.40051 32.008C4.40051 36.3754 5.42657 40.6818 7.396 44.58L16.748 37.368Z" fill="#FBBC04"/>
<path d="M32.56 15.08C36.5705 15.015 40.4471 16.5226 43.36 19.28L51.4 11.284C46.2903 6.52425 39.5427 3.9169 32.56 4.00401C27.3492 3.9974 22.2388 5.43633 17.7969 8.16074C13.3551 10.8852 9.75605 14.7883 7.40002 19.436L16.744 26.64C18.968 20.008 25.208 15.08 32.552 15.08H32.56Z" fill="#EA4335"/>
</svg>
