<svg width="128" height="128" viewBox="0 0 128 128" fill="none" xmlns="http://www.w3.org/2000/svg">
<circle cx="64" cy="64" r="64" fill="#6D2BF0"/>
<path d="M99.1303 57.0475L97.3528 53.9425C97.2729 53.8056 97.1421 53.7059 96.9889 53.6652C96.8357 53.6244 96.6726 53.646 96.5353 53.725L92.7328 55.945L86.8603 39.73C86.5502 38.7625 85.9407 37.9185 85.1197 37.32C84.2988 36.7214 83.3088 36.3993 82.2928 36.4H49.7953C47.1928 36.4 44.8828 38.08 44.0803 40.5625L38.4853 55.9525L34.6753 53.7325C34.5379 53.6535 34.3749 53.6319 34.2217 53.6727C34.0685 53.7134 33.9377 53.8131 33.8578 53.95L32.0803 57.0475C31.9153 57.3325 32.0128 57.6925 32.2978 57.8575L36.8278 60.4975L35.7403 63.4975C35.6503 63.7375 35.6053 63.9925 35.6053 64.2475V90.3625C35.6053 91.54 36.4903 92.4925 37.5778 92.4925H42.6478C43.5703 92.4925 44.3728 91.795 44.5678 90.82L45.1453 87.9925H86.0653L86.6428 90.82C86.8453 91.795 87.6403 92.4925 88.5628 92.4925H93.6328C94.7203 92.4925 95.6053 91.54 95.6053 90.3625V64.2475C95.6053 63.9925 95.5603 63.7375 95.4703 63.4975L94.3828 60.4975L98.9053 57.8575C99.0414 57.7789 99.1413 57.65 99.1834 57.4985C99.2254 57.347 99.2064 57.1851 99.1303 57.0475ZM47.0053 72.6175C45.3478 72.6175 44.0053 71.275 44.0053 69.6175C44.0053 67.96 45.3478 66.6175 47.0053 66.6175C48.6628 66.6175 50.0053 67.96 50.0053 69.6175C50.0053 71.275 48.6628 72.6175 47.0053 72.6175ZM76.1053 78.2425C76.1053 78.5725 75.8353 78.8425 75.5053 78.8425H55.7053C55.3753 78.8425 55.1053 78.5725 55.1053 78.2425V71.9425C55.1053 71.6125 55.3753 71.3425 55.7053 71.3425H58.7053C59.0353 71.3425 59.3053 71.6125 59.3053 71.9425V74.6425H71.9053V71.9425C71.9053 71.6125 72.1753 71.3425 72.5053 71.3425H75.5053C75.8353 71.3425 76.1053 71.6125 76.1053 71.9425V78.2425ZM84.2053 72.6175C82.5478 72.6175 81.2053 71.275 81.2053 69.6175C81.2053 67.96 82.5478 66.6175 84.2053 66.6175C85.8628 66.6175 87.2053 67.96 87.2053 69.6175C87.2053 71.275 85.8628 72.6175 84.2053 72.6175ZM43.7053 57.3925L49.1578 42.4L49.1953 42.3025L49.2253 42.205C49.3078 41.9575 49.5328 41.7925 49.7953 41.7925H81.8653L87.5203 57.3925H43.7053Z" fill="white"/>
</svg>
