<svg width="64" height="64" viewBox="0 0 64 64" fill="none" xmlns="http://www.w3.org/2000/svg">
<circle cx="32" cy="32" r="32" fill="#6D2BF0"/>
<path d="M49.5651 28.5238L48.6764 26.9713C48.6364 26.9029 48.571 26.853 48.4944 26.8326C48.4179 26.8123 48.3363 26.823 48.2676 26.8626L46.3664 27.9726L43.4301 19.865C43.2751 19.3813 42.9704 18.9593 42.5599 18.66C42.1494 18.3607 41.6544 18.1997 41.1464 18.2H24.8976C23.5964 18.2 22.4414 19.04 22.0401 20.2813L19.2426 27.9763L17.3376 26.8663C17.269 26.8268 17.1874 26.816 17.1108 26.8364C17.0343 26.8568 16.9688 26.9066 16.9289 26.9751L16.0401 28.5238C15.9576 28.6663 16.0064 28.8463 16.1489 28.9288L18.4139 30.2488L17.8701 31.7488C17.8251 31.8688 17.8026 31.9963 17.8026 32.1238V45.1813C17.8026 45.7701 18.2451 46.2463 18.7889 46.2463H21.3239C21.7851 46.2463 22.1864 45.8976 22.2839 45.4101L22.5726 43.9963H43.0326L43.3214 45.4101C43.4226 45.8976 43.8201 46.2463 44.2814 46.2463H46.8164C47.3601 46.2463 47.8026 45.7701 47.8026 45.1813V32.1238C47.8026 31.9963 47.7801 31.8688 47.7351 31.7488L47.1914 30.2488L49.4526 28.9288C49.5207 28.8895 49.5706 28.825 49.5917 28.7493C49.6127 28.6736 49.6032 28.5926 49.5651 28.5238ZM23.5026 36.3088C22.6739 36.3088 22.0026 35.6376 22.0026 34.8088C22.0026 33.9801 22.6739 33.3088 23.5026 33.3088C24.3314 33.3088 25.0026 33.9801 25.0026 34.8088C25.0026 35.6376 24.3314 36.3088 23.5026 36.3088ZM38.0526 39.1213C38.0526 39.2863 37.9176 39.4213 37.7526 39.4213H27.8526C27.6876 39.4213 27.5526 39.2863 27.5526 39.1213V35.9713C27.5526 35.8063 27.6876 35.6713 27.8526 35.6713H29.3526C29.5176 35.6713 29.6526 35.8063 29.6526 35.9713V37.3213H35.9526V35.9713C35.9526 35.8063 36.0876 35.6713 36.2526 35.6713H37.7526C37.9176 35.6713 38.0526 35.8063 38.0526 35.9713V39.1213ZM42.1026 36.3088C41.2739 36.3088 40.6026 35.6376 40.6026 34.8088C40.6026 33.9801 41.2739 33.3088 42.1026 33.3088C42.9314 33.3088 43.6026 33.9801 43.6026 34.8088C43.6026 35.6376 42.9314 36.3088 42.1026 36.3088ZM21.8526 28.6963L24.5789 21.2L24.5976 21.1513L24.6126 21.1025C24.6539 20.9788 24.7664 20.8963 24.8976 20.8963H40.9326L43.7601 28.6963H21.8526Z" fill="white"/>
</svg>
